<?xml version="1.0" encoding="iso-8859-1"?>
<!-- Generator: Adobe Illustrator 19.0.0, SVG Export Plug-In . SVG Version: 6.00 Build 0)  -->
<svg version="1.1" id="Capa_1" xmlns="http://www.w3.org/2000/svg" xmlns:xlink="http://www.w3.org/1999/xlink" x="0px" y="0px"
	 viewBox="0 0 512 512" style="enable-background:new 0 0 512 512;" xml:space="preserve">
<polygon style="fill:#54BBFF;" points="474.5,7.5 256,256 474.5,504.5 504.5,504.5 504.5,7.5 "/>
<rect x="7.5" y="7.5" style="fill:#8DD2FF;" width="467" height="497"/>
<polygon style="fill:#C6E8FF;" points="444.5,37.5 256,256 444.5,474.5 474.5,474.5 474.5,37.5 "/>
<rect x="37.5" y="37.5" style="fill:#DEF1FF;" width="407" height="437"/>
<path style="fill:#54BBFF;" d="M256,391.5c-38.322,0-69.5-31.178-69.5-69.5c0-11.046,8.954-20,20-20s20,8.954,20,20
	c0,16.266,13.233,29.5,29.5,29.5s29.5-13.234,29.5-29.5v-16.5c0-16.266-13.233-29.5-29.5-29.5h-49.5
	c-6.04,0-11.756-2.729-15.554-7.426c-3.797-4.697-5.268-10.858-4.002-16.764l24.75-115.5c1.976-9.222,10.125-15.81,19.556-15.81
	h74.25c11.046,0,20,8.954,20,20s-8.954,20-20,20h-58.082L231.24,236H256c38.322,0,69.5,31.178,69.5,69.5V322
	C325.5,360.322,294.322,391.5,256,391.5z"/>
<path d="M504.5,0H7.5C3.357,0,0,3.358,0,7.5v497c0,4.142,3.357,7.5,7.5,7.5h497c4.143,0,7.5-3.358,7.5-7.5V7.5
	C512,3.358,508.643,0,504.5,0z M497,497H15V15h482V497z"/>
<path d="M37.5,482h437c4.143,0,7.5-3.358,7.5-7.5v-437c0-4.142-3.357-7.5-7.5-7.5h-437c-4.143,0-7.5,3.358-7.5,7.5v45
	c0,4.142,3.357,7.5,7.5,7.5s7.5-3.358,7.5-7.5V45h422v422H45V112.5c0-4.142-3.357-7.5-7.5-7.5s-7.5,3.358-7.5,7.5v362
	C30,478.642,33.357,482,37.5,482z"/>
<path d="M305.5,168c15.163,0,27.5-12.336,27.5-27.5S320.663,113,305.5,113h-74.25c-12.882,0-24.19,9.143-26.89,21.738l-24.749,115.5
	c-1.749,8.16,0.257,16.561,5.503,23.052c5.247,6.489,13.042,10.21,21.386,10.21H256c12.131,0,22,9.869,22,22V322
	c0,12.131-9.869,22-22,22s-22-9.869-22-22c0-15.164-12.337-27.5-27.5-27.5S179,306.836,179,322c0,42.458,34.542,77,77,77
	s77-34.542,77-77v-16.5c0-42.458-34.542-77-77-77h-15.482l12.964-60.5H305.5z M240.084,158.929l-16.178,75.5
	c-0.475,2.214,0.077,4.525,1.502,6.287c1.424,1.761,3.567,2.785,5.832,2.785H256c34.187,0,62,27.813,62,62V322
	c0,34.187-27.813,62-62,62s-62-27.813-62-62c0-6.893,5.607-12.5,12.5-12.5S219,315.107,219,322c0,20.402,16.598,37,37,37
	s37-16.598,37-37v-16.5c0-20.402-16.598-37-37-37h-49.5c-3.793,0-7.336-1.692-9.721-4.641c-2.385-2.95-3.296-6.769-2.501-10.478
	l24.75-115.5c1.227-5.726,6.366-9.881,12.222-9.881h74.25c6.893,0,12.5,5.607,12.5,12.5s-5.607,12.5-12.5,12.5h-58.082
	C243.882,153,240.825,155.471,240.084,158.929z"/>
<g>
</g>
<g>
</g>
<g>
</g>
<g>
</g>
<g>
</g>
<g>
</g>
<g>
</g>
<g>
</g>
<g>
</g>
<g>
</g>
<g>
</g>
<g>
</g>
<g>
</g>
<g>
</g>
<g>
</g>
</svg>
