<?xml version="1.0"?>
<svg xmlns="http://www.w3.org/2000/svg" xmlns:xlink="http://www.w3.org/1999/xlink" xmlns:svgjs="http://svgjs.com/svgjs" version="1.1" width="512" height="512" x="0" y="0" viewBox="0 0 512 512" style="enable-background:new 0 0 512 512" xml:space="preserve" class=""><g><g xmlns="http://www.w3.org/2000/svg"><g><g clip-rule="evenodd" fill-rule="evenodd"><path d="m108.471 332.472v-176.629h75c.001 58.876.001 117.753 0 176.629z" fill="#f7eba4" data-original="#f7eba4" style="" class=""/><path d="m183.471 317.472v-146.629h49.673l29.271-20.402h92.827c12.499 0 22.726 10.226 22.726 22.726 0 12.499-10.227 22.725-22.726 22.725 15.265 0 31.604 2.89 31.604 22.726 0 12.499-10.227 22.726-22.726 22.726 14.066 0 25.934 7.988 25.934 23.139 0 12.727-10.413 23.14-23.139 23.14 14.434 0 26.692 7.931 26.692 23.598 0 12.979-10.619 23.598-23.598 23.598h-67.473v78.142c0 12.979-10.619 23.597-23.598 23.597h-23.598v-54.406l-39.423-64.68z" fill="#fedbad" data-original="#fedbad" style="" class=""/><path d="m108.471 155.843h22.5v176.629h-22.5z" fill="#f4e276" data-original="#f4e276" style="" class=""/><path d="m183.471 317.472v-146.629h22.5v124.127h18.729l53.139 87.182v54.406h-22.5v-54.406l-39.423-64.68z" fill="#fab684" data-original="#fab684" style="" class=""/><path d="m38.5 376.252v100.248h102.827c34.31 17.88 73.307 28 114.674 28 137.243 0 248.5-111.257 248.5-248.5 0-137.563-111.413-248.5-248.879-248.5-136.943.205-247.917 111.179-248.122 248.121 0 42.415 10.431 83.513 31 120.631zm69.971-43.78v-176.629h75v15h49.673l29.271-20.402h92.827c12.499 0 22.726 10.226 22.726 22.726 0 12.499-10.227 22.725-22.726 22.725 15.265 0 31.604 2.89 31.604 22.726 0 12.499-10.227 22.726-22.726 22.726 14.066 0 25.934 7.988 25.934 23.139 0 12.727-10.413 23.14-23.139 23.14 14.434 0 26.692 7.931 26.692 23.598 0 12.979-10.619 23.598-23.598 23.598h-67.473v78.142c0 12.979-10.619 23.597-23.598 23.597h-23.598v-54.406l-39.423-64.68h-32.445v14.999h-75.001z" fill="#6dd796" data-original="#afd1f2" style="" class=""/><path d="m7.5 255.621c-.031 42.329 10.474 83.592 31 120.631v100.248h22.5v-100.248c-86.329-155.783 17.072-360.051 206.247-368.485-141.109-6.292-259.535 105.987-259.747 247.854z" fill="#93edb6" data-original="#99c5f2" style="" class=""/></g><g><path d="m482 256h-15c0-104.602-77.991-194.42-181.415-208.927l2.084-14.854c53.459 7.498 102.593 34.093 138.352 74.887 36.098 41.183 55.979 94.061 55.979 148.894zm-210.826-210.452c-5.058-.363-10.163-.548-15.174-.548v-15c5.368 0 10.835.197 16.25.587z" fill="#ffffff" data-original="#ffffff" style="" class=""/></g><g><path d="m160.971 253.342h-15v-45h15zm0-60h-15v-15h15z" fill="#ffffff" data-original="#ffffff" style="" class=""/></g><g><path d="m105.999 454h-15v-15h15zm-30 0h-15v-15h15z" fill="#ffffff" data-original="#ffffff" style="" class=""/></g></g><g><path d="m370.008 327.318h-91.127v15h91.127c17.147 0 31.098-13.95 31.098-31.098 0-10.651-4.759-19.435-12.702-24.918 5.646-5.561 9.15-13.288 9.15-21.819 0-10.389-4.561-18.974-12.188-24.387 5.542-5.482 8.979-13.086 8.979-21.479 0-14.806-7.637-21.993-14.043-25.416-.564-.302-1.139-.585-1.722-.85 4.301-5.223 6.887-11.908 6.887-19.186 0-16.666-13.56-30.226-30.227-30.226h-38.913v15h38.913c8.396 0 15.227 6.83 15.227 15.226s-6.83 15.226-15.227 15.226h-11.98v15h11.981c20.072 0 24.104 5.826 24.104 15.226 0 8.396-6.83 15.226-15.226 15.226h-20.86v15h20.86c8.911 0 18.434 4.108 18.434 15.64 0 8.624-7.016 15.64-15.64 15.64h-23.653v15h23.654c4.502 0 19.191 1.161 19.191 16.098 0 8.876-7.221 16.097-16.097 16.097z" fill="#000000" data-original="#000000" style="" class=""/><path d="m100.971 148.343v52.499h15v-37.499h60v73.314h15v-58.314h44.528l29.272-20.402h36.557v-15h-41.268l-29.272 20.402h-39.817v-15z" fill="#000000" data-original="#000000" style="" class=""/><path d="m100.971 339.972h90v-14.999h20.733l36.135 59.285v59.8h31.098c17.147 0 31.098-13.95 31.098-31.098v-55.642h-15v55.642c0 8.876-7.222 16.098-16.098 16.098h-16.098v-49.011l-42.711-70.074h-29.157v-58.315h-15v73.314h-60v-109.13h-15z" fill="#000000" data-original="#000000" style="" class=""/><path d="m256 497c-38.669 0-77.124-9.389-111.208-27.151l-1.629-.849h-97.163v-94.688l-.94-1.696c-19.665-35.487-30.06-75.812-30.06-116.616 0-63.744 24.658-123.845 69.434-169.23l-10.678-10.536c-47.563 48.212-73.756 112.054-73.756 179.766 0 42.688 10.713 84.886 31 122.176v105.824h108.504c35.807 18.324 76.043 28 116.496 28 65.488 0 127.804-24.722 175.467-69.611l-10.283-10.92c-44.871 42.259-103.534 65.531-165.184 65.531z" fill="#000000" data-original="#000000" style="" class=""/><path d="m437.02 74.98c-48.352-48.351-112.64-74.98-181.02-74.98-63.282 0-124.037 23.286-171.073 65.568l10.027 11.154c44.278-39.802 101.472-61.722 161.046-61.722 132.888 0 241 108.112 241 241 0 61.647-23.272 120.311-65.531 165.184l10.92 10.283c44.889-47.667 69.611-109.983 69.611-175.467 0-68.38-26.629-132.668-74.98-181.02z" fill="#000000" data-original="#000000" style="" class=""/></g></g></g></svg>
