<svg id="Layer_1" enable-background="new 0 0 510 510" height="512" viewBox="0 0 510 510" width="512" xmlns="http://www.w3.org/2000/svg"><g id="XMLID_3915_"><path id="XMLID_3908_" d="m180 195-86.638 11.77c-2.164 10.543-3.284 21.322-3.35 32.218 6.35 3.389 89.988 61.012 89.988 61.012l74.99-53 .005.002.005.003 15-17-15-17c-80.641-19.36-74.704-17.934-75-18.005z" fill="#ffc649"/><path id="XMLID_3902_" d="m330 300s83.592-57.032 89.996-60.357c-.023-10.817-1.096-21.564-3.215-32.133l-86.791-12.51-74.99 18.005v34c13.101 6.987 75 52.995 75 52.995z" fill="#ffa951"/><path id="XMLID_4026_" d="m232.5 52.5c0-12.406 10.093-22.5 22.5-22.5l15-15-15-15c-28.948 0-52.5 23.55-52.5 52.5 0 28.948 23.55 52.5 52.5 52.5l15-15-15-15c-6.204 0-11.829-2.523-15.902-6.598-4.075-4.073-6.598-9.698-6.598-15.902z" fill="#ffc649"/><path id="XMLID_4024_" d="m307.5 52.5c0-28.948-23.55-52.5-52.5-52.5v30c6.204 0 11.829 2.523 15.902 6.598 8.795 8.794 8.801 23.004 0 31.805-4.073 4.074-9.698 6.597-15.902 6.597v30c28.948 0 52.5-23.55 52.5-52.5z" fill="#ffa951"/><path id="XMLID_4019_" d="m405 60v30c8.271 0 15 6.729 15 15h30c0-24.812-20.187-45-45-45z" fill="#6dabfc"/><path id="XMLID_4018_" d="m480 105h30c0-57.896-47.102-105-105-105v30c41.354 0 75 33.644 75 75z" fill="#6dabfc"/><path id="XMLID_4017_" d="m90 105h-30c0-24.813 20.187-45 45-45v30c-8.271 0-15 6.729-15 15z" fill="#afd1fd"/><path id="XMLID_4016_" d="m30 105h-30c0-57.897 47.103-105 105-105v30c-41.355 0-75 33.645-75 75z" fill="#afd1fd"/><path id="XMLID_4015_" d="m93.362 206.77c55.261 29.496 5.294 2.826 49.138 26.228 13.1-6.988 24.391-13.011 37.491-19.999 13.127 7.002 24.372 12.999 37.499 20.001 13.128-7.001 24.372-12.999 37.499-20l.005.003.005.003 15-69.003-14.999-69.003c-79.873 0-146.274 56.931-161.638 131.77z" fill="#ffdc75"/><path id="XMLID_4011_" d="m329.99 213.001c13.155 7.015 24.444 13.035 37.599 20.05 15.655-8.128 33.537-17.412 49.192-25.54-15.055-75.087-81.529-132.511-161.781-132.511v138.005c13.101 6.987 24.39 13.008 37.491 19.995 13.127-7.001 24.371-12.998 37.499-19.999z" fill="#ffc649"/><path id="XMLID_3922_" d="m270 314.502c-4.08-18.359-12.621-56.789-15-67.497l-.002-.001-.003-.002-.002-.001-.003-.001c-21.508 11.471-16.327 8.708-37.499 20-13.041-6.956-24.457-13.044-37.498-19.999-13.041 6.956-24.456 13.045-37.497 20.002-13.288-7.093-40.435-21.583-52.483-28.013-.024 4.116-.008 51.079-.013 91.01 0 16.593-13.506 30-30 30l97.5 15 97.5-15c4.767-14.457 10.233-31.04 15-45.498z" fill="#ffdc75"/><path id="XMLID_3932_" d="m450 360c-16.593 0-30-13.506-30-30 0-.166.01-83.267-.004-90.357-5.733 2.977-46.079 23.924-52.594 27.307-21.458-11.442-16.289-8.686-37.411-19.95-13.042 6.956-24.458 13.044-37.5 20-13.039-6.955-24.451-13.04-37.491-19.995v112.995l97.5 15z" fill="#ffc649"/><path id="XMLID_4021_" d="m210 450v15c0 24.852 20.146 45 45 45l15-30-15-30-22.5-15z" fill="#ff8659"/><path id="XMLID_4020_" d="m300 465c0-5.246 0-9.754 0-15l-22.5-15-22.5 15v60c24.852 0 45-20.147 45-45z" fill="#ff5c5c"/><path id="XMLID_3868_" d="m45 360v90h210l15-45-15-45c-11.664 0-198.336 0-210 0z" fill="#ffc649"/><path id="XMLID_3836_" d="m465 360c-11.664 0-198.336 0-210 0v90h210c0-10.889 0-79.04 0-90z" fill="#ffa951"/></g></svg>